<svg id="icon_核酸检测_核算和抗体检测查询" data-name="icon/核酸检测/核算和抗体检测查询" xmlns="http://www.w3.org/2000/svg" width="120" height="120" viewBox="0 0 120 120">
  <g id="icon_核酸检测_核算和抗体检测查询-2" data-name="icon/核酸检测/核算和抗体检测查询">
    <g id="编组_38" data-name="编组 38">
      <g id="编组_41" data-name="编组 41" transform="translate(7.778 7.778)">
        <g id="编组_36" data-name="编组 36">
          <circle id="椭圆形" cx="48.143" cy="48.143" r="48.143" transform="translate(0 7.17)" fill="#47e0a4" opacity="0.952"/>
          <path id="路径" d="M0,5.242c0,18.6,15.593,33.682,34.827,33.682S69.654,23.844,69.654,5.242c0,0-9.413,6.046-15.236,6.046C37.953,11.288,40.039,0,18.575,0,9.924,0,0,5.242,0,5.242Z" transform="translate(13.316 51.216)" fill="#47e0a4"/>
          <path id="矩形_4" data-name="矩形 4" d="M2.954,22.644V6.856a3.446,3.446,0,0,1,0-6.821V0H20.675V.035a3.446,3.446,0,0,1,0,6.821V22.644a8.861,8.861,0,1,1-17.721,0Z" transform="translate(87.455 0.198) rotate(45)" fill="#47e0a4" opacity="0.702"/>
        </g>
      </g>
    </g>
  </g>
</svg>
